Coordinates
version=1
nRows=29
nColumns=24
inDegrees=yes

Units are S.I. units (second, meters, Newtons, ...)
Angles are in degrees.

endheader
time	pelvis_tilt	pelvis_list	pelvis_rotation	pelvis_tx	pelvis_ty	pelvis_tz	hip_flexion_r	hip_adduction_r	hip_rotation_r	knee_angle_r	ankle_angle_r	subtalar_angle_r	mtp_angle_r	hip_flexion_l	hip_adduction_l	hip_rotation_l	knee_angle_l	ankle_angle_l	subtalar_angle_l	mtp_angle_l	lumbar_extension	lumbar_bending	lumbar_rotation
      0.91616667	     -0.68045446	      0.22180656	     -0.36793896	     -0.17651199	      0.97600746	      0.30706256	    -10.97285558	      3.65826219	     -4.83842843	    -12.57740935	     17.87203862	     -1.21788496	     -4.96694591	     26.59299917	      2.34820112	     -1.91417427	    -11.49463959	     -0.35907225	     -5.69131231	     -0.77819518	      0.95425398	      3.54289986	      8.29255677
      0.92033333	     -0.67966089	      0.34984122	     -0.39553530	     -0.17044892	      0.97553737	      0.30668483	    -10.91137342	      3.43128845	     -4.92712973	    -13.45889537	     18.03103230	     -0.93687406	     -4.66513997	     26.40419337	      2.58899658	     -1.71508318	    -11.43189691	     -0.69071435	     -5.98045446	      1.24465226	      1.00364510	      3.41268311	      8.29826663
      0.92450000	     -0.80245237	      0.39033881	     -0.43423454	     -0.16444229	      0.97496802	      0.30641985	    -10.71255557	      3.33458739	     -4.75009148	    -14.32769468	     18.03289975	     -1.17962234	     -4.62976639	     26.40132027	      2.71454249	     -1.56781762	    -11.53389035	     -1.02721527	     -6.04663178	      1.34728590	      1.20612727	      3.37700973	      8.32633026
      0.92866667	     -0.86383949	      0.48024313	     -0.45731847	     -0.15838564	      0.97452160	      0.30609261	    -10.54616273	      3.17294012	     -4.65415303	    -15.26638096	     18.02661244	     -1.31121890	     -4.56817852	     26.32070788	      2.90539491	     -1.37556825	    -11.67957017	     -1.36653078	     -6.23505024	      1.47667563	      1.32962936	      3.28871142	      8.34052028
      0.93283333	     -0.91700699	      0.57667692	     -0.47909639	     -0.15229941	      0.97413505	      0.30576501	    -10.34784945	      2.99753577	     -4.59077049	    -16.28161048	     17.98036750	     -1.38316529	     -4.47119217	     26.22133600	      3.10428305	     -1.15405533	    -11.85879976	     -1.73336214	     -6.49436403	      1.63431225	      1.45919307	      3.17926045	      8.34259587
      0.93700000	     -0.98460327	      0.68062009	     -0.49176676	     -0.14620582	      0.97376201	      0.30541931	    -10.09759868	      2.81271286	     -4.53203483	    -17.36024592	     17.87485188	     -1.45989806	     -4.34840830	     26.15205301	      3.31212943	     -0.93198852	    -12.11273046	     -2.10050478	     -6.75895737	      1.79592621	      1.60207253	      3.06247276	      8.33119326
      0.94116667	     -1.04069946	      0.79529033	     -0.49746635	     -0.14009193	      0.97344521	      0.30505718	     -9.82423601	      2.61168444	     -4.48709665	    -18.50118143	     17.71970548	     -1.52764894	     -4.18908432	     26.06860561	      3.53359204	     -0.69205455	    -12.40205156	     -2.47878161	     -7.07265060	      1.96786115	      1.73375295	      2.92923262	      8.31335294
      0.94533333	     -1.08834330	      0.92097275	     -0.49439471	     -0.13398444	      0.97317268	      0.30465918	     -9.51779016	      2.39139047	     -4.46734280	    -19.71238752	     17.50771953	     -1.54694202	     -3.94927948	     25.98206434	      3.77220487	     -0.43161496	    -12.73363006	     -2.86790884	     -7.46508807	      2.18232867	      1.84787607	      2.79473553	      8.28789015
      0.94950000	     -1.10429212	      1.07593846	     -0.47380177	     -0.12781562	      0.97294940	      0.30422686	     -9.20316356	      2.11728922	     -4.57160568	    -20.99440781	     17.16075660	     -1.43476067	      0.05257386	     25.87385806	      4.03657258	     -0.24002928	    -13.11877185	     -3.22890078	     -7.79224401	      5.13257627	      1.93683987	      2.60907754	      8.21083563
      0.95366667	     -1.17227143	      1.19087330	     -0.47595068	     -0.12170785	      0.97275181	      0.30386417	     -8.80577803	      1.91469691	     -4.47261180	    -22.30167126	     16.74112178	     -1.64662658	      0.11545125	     25.81276556	      4.25089836	      0.00021430	    -13.50502660	     -3.59888163	     -8.16713367	      5.12562047	      2.08476744	      2.47537216	      8.19768890
      0.95783333	     -1.21975241	      1.32994616	     -0.45348535	     -0.11560286	      0.97257804	      0.30343282	     -8.37692163	      1.66678393	     -4.47889034	    -23.70624768	     16.32600278	     -1.67180360	      0.26415821	     25.74998641	      4.50120617	      0.23919191	    -13.94984653	     -3.93140324	     -8.61865179	      5.12683306	      2.19635298	      2.31575947	      8.14840911
      0.96200000	     -1.24668329	      1.50410124	     -0.43462094	     -0.10948018	      0.97246160	      0.30296802	     -7.92232701	      1.36031622	     -4.53505136	    -25.18857603	     15.83481777	     -1.59505118	      0.65329600	     25.64057392	      4.79056470	      0.50176752	    -14.36429561	     -4.19874176	     -9.11688706	      5.13932912	      2.29536786	      2.11077142	      8.08622258
      0.96616667	     -1.29344087	      1.66774801	     -0.40140102	     -0.10337426	      0.97232786	      0.30249989	     -7.40838123	      1.05735819	     -4.61451153	    -26.71039085	     15.12428706	     -1.57875240	      5.18540298	     25.58706235	      5.05594898	      0.67087574	    -14.85092772	     -4.46143874	     -9.43652796	      5.25808628	      2.41285295	      1.91858125	      7.99740183
      0.97033333	     -1.31937547	      1.83331808	     -0.37530773	     -0.09728328	      0.97228667	      0.30206152	     -6.88283162	      0.76034266	     -4.63596440	    -28.28085366	     14.40227988	     -1.63307909	      5.23301792	     25.49419807	      5.31861564	      0.85194365	    -15.31533161	     -4.65336705	     -9.76733126	      5.25273622	      2.51511163	      1.72242392	      7.93736939
      0.97450000	     -1.36554125	      2.01634165	     -0.33292203	     -0.09124180	      0.97220428	      0.30155125	     -6.28233217	      0.42336437	     -4.71276251	    -29.93462312	     13.66400064	     -1.52576994	      5.39005940	     25.44436867	      5.61177911	      1.04563654	    -15.82599235	     -4.83065694	    -10.24536433	      5.23843534	      2.61761701	      1.51164604	      7.85239246
      0.97866667	     -1.34070310	      2.26229598	     -0.28184072	     -0.08515928	      0.97224263	      0.30099316	     -5.72449634	     -0.01063641	     -4.87326132	    -31.64306916	     12.85726772	     -1.34969954	      6.06716474	     25.27251478	      5.97741447	      1.26297753	    -16.25446370	     -4.97173412	    -10.71552117	      5.17786096	      2.64846001	      1.21937847	      7.75413860
      0.98283333	     -1.40108403	      2.42823825	     -0.24895919	     -0.07917805	      0.97219789	      0.30053622	     -5.04063417	     -0.33063751	     -4.88912592	    -33.35908628	     11.84151596	     -1.33278496	      6.31815277	     25.25572042	      6.22771058	      1.35901781	    -16.81193118	     -4.96525147	    -10.98117636	      5.15254604	      2.76989494	      1.02638422	      7.66483235
      0.98700000	     -1.40935142	      2.64900550	     -0.20216576	     -0.07319272	      0.97222395	      0.30001460	     -4.37731128	     -0.73891049	     -4.98460652	    -35.13052455	     10.81130580	     -1.21005818	      6.69313936	     25.14938997	      6.54906060	      1.49628169	    -17.30707971	     -4.94531844	    -11.33192523	      5.10814220	      2.82932142	      0.76642811	      7.55854940
      0.99116667	     -1.36358523	      2.91463302	     -0.15937340	     -0.06718812	      0.97236247	      0.29948488	     -3.75286810	     -1.21374191	     -5.09443127	    -36.90456451	      9.60594205	     -1.22191458	     12.63761664	     24.95417132	      6.91352685	      1.61650202	    -17.74989898	     -4.82178467	    -11.59904004	      4.30808789	      2.82940433	      0.45811475	      7.45359543
      0.99533333	     -1.37070184	      3.14547018	     -0.11174855	     -0.06126722	      0.97244071	      0.29899279	     -3.03671863	     -1.63615301	     -5.15023531	    -38.71439130	      8.42159922	     -1.18501456	     12.66661109	     24.84132204	      7.23155634	      1.69538379	    -18.23859402	     -4.67697186	    -11.82072030	      4.30602441	      2.87839870	      0.18447704	      7.35731858
      0.99950000	     -1.33797106	      3.41012309	     -0.07074190	     -0.05535395	      0.97258998	      0.29850830	     -2.34279303	     -2.10162811	     -5.19124127	    -40.53746349	      7.21337643	     -1.19781971	     12.69721498	     24.66009715	      7.58026721	      1.76285880	    -18.68224737	     -4.44047198	    -11.97637725	      4.30166567	      2.88669973	     -0.12368251	      7.26109104
      1.00366667	     -1.32943590	      3.65739053	     -0.01481038	     -0.04951578	      0.97271598	      0.29800392	     -1.59280699	     -2.56087314	     -5.26278004	    -42.37752062	      5.94679738	     -1.11021278	     12.77286646	     24.50527749	      7.91537754	      1.82872031	    -19.11683044	     -4.24223276	    -12.22124786	      4.27817925	      2.90744216	     -0.41747096	      7.14326807
      1.00783333	     -1.30057984	      3.92935328	      0.03328073	     -0.04370261	      0.97289303	      0.29752351	     -0.84965071	     -3.04267102	     -5.29265069	    -44.21107608	      4.67951341	     -1.10571814	     12.84224948	     24.30768943	      8.26940592	      1.88159625	    -19.51301434	     -3.97064641	    -12.38664403	      4.25109602	      2.90171200	     -0.73746068	      7.03189765
      1.01200000	     -1.23784163	      4.22337637	      0.06532223	     -0.03791269	      0.97314518	      0.29708569	     -0.12811317	     -3.54170305	     -5.27415072	    -46.03398982	      3.45307672	     -1.17769862	     12.87182858	     24.04474359	      8.63671602	      1.91828857	    -19.85494137	     -3.61247378	    -12.48176165	      4.23619592	      2.85586964	     -1.08675032	      6.93274728
      1.01616667	     -1.22899406	      4.47797539	      0.13011268	     -0.03221403	      0.97332128	      0.29663235	      0.66790134	     -3.99917196	     -5.28698116	    -47.83997998	      2.15951828	     -1.19443914	     12.91568778	     23.85242205	      8.96884196	      1.95444992	    -20.21089985	     -3.34316189	    -12.62891629	      4.19719785	      2.85464847	     -1.39632384	      6.80957274
      1.02033333	     -1.18519321	      4.75901924	      0.17797727	     -0.02654658	      0.97356915	      0.29619177	      1.43920692	     -4.48269963	     -5.25835396	    -49.62700509	      0.95540389	     -1.28120329	     12.93530046	     23.59136668	      9.32266030	      1.97907364	    -20.50544818	     -3.00007695	    -12.73188241	      4.15493315	      2.81844100	     -1.72794550	      6.68945973
      1.02450000	     -1.14816072	      5.03186650	      0.22558350	     -0.02092411	      0.97383640	      0.29578904	      2.22732314	     -4.94550112	     -5.20350687	    -51.38132332	     -0.18715662	     -1.41352556	     12.92252854	     23.31547017	      9.66240766	      1.99926349	    -20.75282486	     -2.64770401	    -12.79909899	      4.11438733	      2.78152061	     -2.05267635	      6.57353913
      1.02866667	     -1.12478946	      5.29401599	      0.27563153	     -0.01535512	      0.97410982	      0.29540656	      3.03902593	     -5.38778237	     -5.13123621	    -53.09819566	     -1.25791083	     -1.57910786	     12.87325514	     23.03859648	      9.98768531	      2.01324526	    -20.96557042	     -2.29982428	    -12.85563204	      4.06756258	      2.75518467	     -2.36278217	      6.45312996
      1.03283333	     -1.09644087	      5.55784579	      0.32191430	     -0.00979997	      0.97441795	      0.29504910	      3.84885220	     -5.82546768	     -5.04432067	    -54.77315243	     -2.21957241	     -1.77643356	     12.79921566	     22.72599820	     10.30889787	      2.01575794	    -21.11869873	     -1.92350563	    -12.88293408	      4.03242785	      2.72546868	     -2.67946461	      6.33969601
